# xmcd CD database file generated by Grip 3.0.6
# 
# Track frame offsets:
#       150
#       23487
#       44865
#       70482
#       91177
#       116795
#       143860
#       163307
#       186157
#       204232
#       226575
#       244392
#       265165
#       284812
# 
# Disc length: 3915 seconds
# 
# Revision: 1
# Processed by: cddbd v1.4PL0 Copyright (c) Steve Scherf et al.
# Submitted via: Grip 3.0.6
# 
DISCID=d30f490e
DTITLE=Voz da Verdade - O Espelho
DYEAR=2000
DGENRE=Gospel
TTITLE0=O Espelho
TTITLE1=A Viagem
TTITLE2=De Volta para O Futuro
TTITLE3=Mão que fez o Mundo
TTITLE4=Glória ao Santo
TTITLE5=Esconderijo
TTITLE6=Alegria do Senhor
TTITLE7=Querer é Poder
TTITLE8=A Ultima Decolagem
TTITLE9=Impossível
TTITLE10=O Barco
TTITLE11=Deus está no meu Viver
TTITLE12=Que seria de Mim
TTITLE13=O Pecador e a Redenção
EXTD=
EXTT0=
EXTT1=
EXTT2=
EXTT3=
EXTT4=
EXTT5=
EXTT6=
EXTT7=
EXTT8=
EXTT9=
EXTT10=
EXTT11=
EXTT12=
EXTT13=
PLAYORDER=
